<svg width="32" height="32" viewBox="0 0 32 32" fill="none" xmlns="http://www.w3.org/2000/svg">
<g clip-path="url(#clip0_1694_2976)">
<path d="M8.26436 19.931C8.23104 19.2228 7.91445 18.7063 7.23963 18.4313C6.9647 18.3147 6.68977 18.1897 6.41484 18.0564C5.80667 17.7482 5.50675 17.09 5.66504 16.4319C5.74002 16.1153 5.83166 15.807 5.90664 15.4988C6.02328 15.0072 5.96496 14.549 5.62338 14.1491C5.43177 13.9159 5.24015 13.6826 5.04853 13.4493C4.50701 12.8078 4.51534 12.0747 5.04853 11.4415C5.24015 11.2166 5.43177 10.9999 5.61505 10.775C5.96496 10.3501 6.06494 9.87524 5.91498 9.34204C5.82333 9.02546 5.74002 8.70054 5.6817 8.37563C5.55673 7.70914 5.88165 7.10096 6.48983 6.8177C6.79808 6.67607 7.11466 6.54277 7.42292 6.39281C7.8728 6.1762 8.14773 5.81796 8.2477 5.32642C8.30602 5.03483 8.37267 4.73491 8.43099 4.44332C8.58928 3.69352 9.17246 3.21031 9.93893 3.21864C10.2388 3.21864 10.5388 3.25196 10.8387 3.26029C11.3886 3.27696 11.8218 3.05202 12.155 2.61046C12.3216 2.38552 12.4883 2.16058 12.6632 1.93564C13.1631 1.29414 13.8546 1.13585 14.5794 1.50242C14.8377 1.63572 15.1042 1.76069 15.3542 1.90231C15.8291 2.15225 16.3123 2.16058 16.7871 1.91898C17.0371 1.79401 17.287 1.66071 17.5369 1.53574C18.3117 1.15251 19.0032 1.31913 19.5198 2.00229C19.7114 2.26055 19.903 2.51882 20.1113 2.76876C20.3945 3.11033 20.7528 3.28529 21.2027 3.28529C21.5359 3.28529 21.8692 3.27696 22.2024 3.27696C23.0189 3.27696 23.577 3.7435 23.727 4.55163C23.7853 4.84322 23.8436 5.14314 23.9103 5.43473C24.0103 5.91794 24.2935 6.25951 24.7351 6.46779C25.035 6.60942 25.3432 6.74272 25.6432 6.89268C26.3097 7.2176 26.6096 7.8591 26.4346 8.57558C26.3597 8.90049 26.2597 9.21708 26.193 9.54199C26.0931 10.0002 26.1597 10.4334 26.468 10.8083C26.6762 11.0583 26.8845 11.2999 27.0845 11.5498C27.601 12.183 27.5927 12.8828 27.0761 13.516C26.8845 13.7492 26.6929 13.9825 26.493 14.2074C26.143 14.624 26.0514 15.0905 26.1847 15.6071C26.268 15.9153 26.343 16.2319 26.4096 16.5485C26.5513 17.24 26.2597 17.8315 25.6348 18.1564C25.3766 18.2897 25.11 18.4147 24.8434 18.5147C24.1102 18.8062 23.8103 19.3644 23.7853 20.1226C23.6937 20.2559 23.6853 20.4142 23.652 20.5641C23.5354 21.089 23.2438 21.4639 22.7356 21.6638C22.4107 21.7888 22.0524 21.8221 21.7192 21.7555C20.8194 21.5889 20.1696 21.9138 19.6864 22.6719C19.3948 23.1301 19.0366 23.5467 18.4534 23.655C18.0368 23.6966 17.6536 23.5883 17.2953 23.3801C17.0954 23.2634 16.8871 23.1718 16.6872 23.0635C16.229 22.8302 15.7707 22.8219 15.3125 23.0551C15.1292 23.1468 14.9376 23.2301 14.7543 23.3384C14.3544 23.5717 13.9379 23.6883 13.4713 23.6467C12.9465 23.48 12.5966 23.1135 12.3133 22.6636C12.2217 22.5219 12.1134 22.4053 12.0134 22.272C11.7218 21.8888 11.3386 21.7055 10.8637 21.7055C10.5304 21.7055 10.1972 21.7055 9.86395 21.7138C9.05582 21.7138 8.4893 21.2389 8.34767 20.4392C8.34767 20.2475 8.29769 20.0892 8.26436 19.931ZM8.6226 12.4829C8.55595 16.5902 11.9301 19.8643 15.9207 19.9226C20.1946 19.9893 23.4604 16.5652 23.4937 12.5579C23.5354 8.3673 20.1946 5.0265 16.0623 5.00984C11.9801 4.98485 8.53096 8.35064 8.6226 12.4829Z" fill="url(#paint0_linear_1694_2976)"/>
<path d="M8.26446 19.9316C8.30611 20.0899 8.34777 20.2482 8.3811 20.4065C8.53106 21.2063 9.09758 21.6812 9.89737 21.6812C10.2306 21.6812 10.5639 21.6812 10.8971 21.6729C11.372 21.6729 11.7635 21.8561 12.0468 22.2394C12.1468 22.3727 12.2634 22.4976 12.3467 22.6309C12.6383 23.0808 12.9882 23.4474 13.5048 23.614C12.6716 25.1469 11.8469 26.6882 11.0137 28.2211C10.6555 28.8876 10.2889 29.5541 9.93069 30.2206C9.86404 30.3456 9.78906 30.4706 9.67243 30.6705C9.53913 30.004 9.42249 29.4208 9.30585 28.8377C9.12257 27.9212 8.93928 27.0048 8.77266 26.0884C8.72267 25.8301 8.66435 25.7718 8.40609 25.8801C7.03978 26.4466 5.67347 26.9881 4.30716 27.538C4.25717 27.5547 4.19885 27.613 4.09888 27.5463C5.49018 25.0137 6.87315 22.4726 8.26446 19.9316Z" fill="#EF190B"/>
<path d="M18.4868 23.6301C19.07 23.5218 19.4282 23.1052 19.7198 22.647C20.203 21.8889 20.8445 21.5639 21.7526 21.7306C22.0859 21.7889 22.4358 21.7639 22.769 21.6389C23.2689 21.439 23.5688 21.0641 23.6855 20.5392C23.7188 20.3892 23.7271 20.231 23.8188 20.0977C24.252 20.8808 24.6935 21.6556 25.1184 22.4387C26.0265 24.0966 26.9263 25.7628 27.8261 27.4291C27.851 27.4707 27.8677 27.5207 27.9094 27.629C27.3595 27.4124 26.8596 27.2125 26.3681 27.0125C25.435 26.6376 24.4936 26.2627 23.5688 25.8795C23.3522 25.7878 23.2772 25.8045 23.2272 26.0628C22.9523 27.5207 22.6607 28.9787 22.3775 30.4366C22.3691 30.4949 22.3858 30.5616 22.2775 30.6116C22.0859 30.2617 21.8859 29.9118 21.6943 29.5619C20.6446 27.629 19.5949 25.6879 18.5451 23.755C18.5201 23.7051 18.5035 23.6634 18.4868 23.6301Z" fill="#EF190B"/>
<path d="M8.62288 12.4834C8.53124 8.35114 11.972 4.98535 16.0709 5.00201C20.2032 5.01868 23.5357 8.35947 23.5023 12.55C23.4607 16.5573 20.2032 19.9814 15.9293 19.9148C11.9387 19.8648 8.56457 16.5823 8.62288 12.4834ZM17.1873 12.4751C17.1873 11.1504 17.179 9.83409 17.1873 8.50943C17.1873 8.14286 17.0374 7.86794 16.7291 7.68465C16.4125 7.50136 16.0876 7.53469 15.7877 7.74297C15.3295 8.05122 14.8796 8.35947 14.4214 8.67606C14.2048 8.82602 13.9882 8.96765 13.7882 9.12594C13.455 9.38421 13.3467 9.75911 13.4883 10.1507C13.6216 10.5172 13.8965 10.6839 14.3381 10.7005C14.663 10.7089 14.8713 10.5089 15.1212 10.359C15.2045 10.309 15.2878 10.184 15.3878 10.234C15.4878 10.2923 15.4294 10.4256 15.4294 10.5256C15.4294 12.4917 15.4294 14.4579 15.4294 16.424C15.4294 16.9572 15.8043 17.3655 16.2959 17.3738C16.7958 17.3821 17.179 16.9656 17.179 16.4157C17.1873 15.0994 17.1873 13.7831 17.1873 12.4751Z" fill="#D89D4F"/>
<path d="M17.1871 12.4743C17.1871 13.7823 17.1871 15.0986 17.1871 16.4066C17.1871 16.9565 16.8038 17.373 16.304 17.3647C15.8124 17.3564 15.4375 16.9482 15.4375 16.415C15.4375 14.4488 15.4375 12.4827 15.4375 10.5165C15.4375 10.4165 15.4958 10.2832 15.3959 10.2249C15.2959 10.1666 15.2126 10.2999 15.1293 10.3499C14.8793 10.4998 14.671 10.6998 14.3461 10.6915C13.9129 10.6831 13.6296 10.5082 13.4964 10.1416C13.3547 9.7417 13.4547 9.37513 13.7963 9.11687C14.0046 8.95857 14.2212 8.81694 14.4294 8.66698C14.8793 8.35873 15.3375 8.04215 15.7958 7.73389C16.0957 7.53394 16.4123 7.49229 16.7372 7.67557C17.0454 7.85886 17.1954 8.13379 17.1954 8.50036C17.1871 9.83335 17.1871 11.1497 17.1871 12.4743Z" fill="#D89D4F"/>
<path d="M15.9788 16.5164C15.3602 16.5164 14.8094 16.4101 14.3261 16.1974C13.8457 15.9821 13.466 15.6866 13.1871 15.3111C12.911 14.9328 12.7688 14.4965 12.7605 14.0022H14.5664C14.5774 14.2093 14.6451 14.3916 14.7693 14.549C14.8964 14.7036 15.0648 14.8237 15.2746 14.9093C15.4845 14.9949 15.7206 15.0377 15.9829 15.0377C16.2563 15.0377 16.4979 14.9894 16.7077 14.8927C16.9176 14.7961 17.0819 14.6622 17.2006 14.491C17.3194 14.3198 17.3787 14.1223 17.3787 13.8987C17.3787 13.6722 17.3152 13.4721 17.1882 13.2981C17.064 13.1214 16.8845 12.9833 16.6498 12.8839C16.4178 12.7845 16.1417 12.7348 15.8214 12.7348H15.0303V11.4177H15.8214C16.092 11.4177 16.3308 11.3707 16.5379 11.2768C16.7478 11.183 16.9107 11.0532 17.0267 10.8875C17.1427 10.7191 17.2006 10.523 17.2006 10.2994C17.2006 10.0867 17.1496 9.90035 17.0474 9.74019C16.948 9.57728 16.8072 9.45026 16.6249 9.35914C16.4454 9.26801 16.2356 9.22245 15.9953 9.22245C15.7523 9.22245 15.5301 9.26663 15.3285 9.35499C15.1269 9.44059 14.9654 9.56347 14.8439 9.72363C14.7224 9.88378 14.6575 10.0715 14.6492 10.2869H12.9303C12.9386 9.79818 13.0781 9.36742 13.3487 8.99465C13.6193 8.62188 13.9838 8.33056 14.4421 8.1207C14.9033 7.90809 15.4238 7.80178 16.0036 7.80178C16.589 7.80178 17.1012 7.90809 17.5403 8.1207C17.9793 8.33332 18.3203 8.6205 18.5633 8.98222C18.8091 9.34119 18.9306 9.74433 18.9278 10.1917C18.9306 10.6666 18.7828 11.0628 18.4846 11.3804C18.1892 11.6979 17.804 11.8995 17.329 11.9851V12.0514C17.9531 12.1315 18.428 12.3482 18.7539 12.7017C19.0824 13.0523 19.2454 13.4914 19.2426 14.0188C19.2454 14.502 19.1059 14.9314 18.8243 15.3069C18.5454 15.6825 18.1602 15.9779 17.6687 16.1933C17.1772 16.4087 16.6139 16.5164 15.9788 16.5164Z" fill="#94571B"/>
</g>
<defs>
<linearGradient id="paint0_linear_1694_2976" x1="19.1552" y1="1.72925" x2="13.1811" y2="23.2986" gradientUnits="userSpaceOnUse">
<stop stop-color="#9D591A"/>
<stop offset="0.4981" stop-color="#EDB66C"/>
<stop offset="1" stop-color="#C17B36"/>
</linearGradient>
<clipPath id="clip0_1694_2976">
<rect width="32" height="32" fill="white"/>
</clipPath>
</defs>
</svg>
