<svg width="32" height="32" viewBox="0 0 32 32" fill="none" xmlns="http://www.w3.org/2000/svg">
<g clip-path="url(#clip0_1694_2958)">
<path d="M8.26436 19.9329C8.23104 19.2248 7.91445 18.7082 7.23963 18.4333C6.9647 18.3167 6.68977 18.1917 6.41484 18.0584C5.80667 17.7501 5.50675 17.092 5.66504 16.4338C5.74002 16.1172 5.83166 15.809 5.90664 15.5007C6.02328 15.0092 5.96496 14.551 5.62338 14.1511C5.43177 13.9178 5.24015 13.6845 5.04853 13.4513C4.50701 12.8098 4.51534 12.0766 5.04853 11.4435C5.24015 11.2185 5.43177 11.0019 5.61505 10.777C5.96496 10.3521 6.06494 9.87719 5.91498 9.344C5.82333 9.02741 5.74002 8.7025 5.6817 8.37758C5.55673 7.71109 5.88165 7.10291 6.48983 6.81965C6.79808 6.67803 7.11466 6.54473 7.42292 6.39477C7.8728 6.17816 8.14773 5.81992 8.2477 5.32838C8.30602 5.03679 8.37267 4.73686 8.43099 4.44527C8.58928 3.69547 9.17246 3.21226 9.93893 3.22059C10.2388 3.22059 10.5388 3.25392 10.8387 3.26225C11.3886 3.27891 11.8218 3.05397 12.155 2.61242C12.3216 2.38748 12.4883 2.16253 12.6632 1.93759C13.1631 1.29609 13.8546 1.1378 14.5794 1.50437C14.8377 1.63767 15.1042 1.76264 15.3542 1.90427C15.8291 2.1542 16.3123 2.16253 16.7871 1.92093C17.0371 1.79596 17.287 1.66266 17.5369 1.5377C18.3117 1.15446 19.0032 1.32109 19.5198 2.00424C19.7114 2.26251 19.903 2.52077 20.1113 2.77071C20.3945 3.11229 20.7528 3.28724 21.2027 3.28724C21.5359 3.28724 21.8692 3.27891 22.2024 3.27891C23.0189 3.27891 23.577 3.74546 23.727 4.55358C23.7853 4.84517 23.8436 5.14509 23.9103 5.43668C24.0103 5.91989 24.2935 6.26147 24.7351 6.46975C25.035 6.61138 25.3432 6.74467 25.6432 6.89464C26.3097 7.21955 26.6096 7.86105 26.4346 8.57753C26.3597 8.90245 26.2597 9.21903 26.193 9.54395C26.0931 10.0022 26.1597 10.4354 26.468 10.8103C26.6762 11.0602 26.8845 11.3018 27.0845 11.5518C27.601 12.1849 27.5927 12.8847 27.0761 13.5179C26.8845 13.7512 26.6929 13.9845 26.493 14.2094C26.143 14.626 26.0514 15.0925 26.1847 15.609C26.268 15.9173 26.343 16.2339 26.4096 16.5505C26.5513 17.2419 26.2597 17.8335 25.6348 18.1584C25.3766 18.2917 25.11 18.4166 24.8434 18.5166C24.1102 18.8082 23.8103 19.3664 23.7853 20.1245C23.6937 20.2578 23.6853 20.4161 23.652 20.5661C23.5354 21.0909 23.2438 21.4658 22.7356 21.6658C22.4107 21.7908 22.0524 21.8241 21.7192 21.7574C20.8194 21.5908 20.1696 21.9157 19.6864 22.6739C19.3948 23.1321 19.0366 23.5486 18.4534 23.6569C18.0368 23.6986 17.6536 23.5903 17.2953 23.382C17.0954 23.2654 16.8871 23.1737 16.6872 23.0654C16.229 22.8322 15.7707 22.8238 15.3125 23.0571C15.1292 23.1487 14.9376 23.232 14.7543 23.3404C14.3544 23.5736 13.9379 23.6903 13.4713 23.6486C12.9465 23.482 12.5966 23.1154 12.3133 22.6655C12.2217 22.5239 12.1134 22.4073 12.0134 22.274C11.7218 21.8907 11.3386 21.7074 10.8637 21.7074C10.5304 21.7074 10.1972 21.7074 9.86395 21.7158C9.05582 21.7158 8.4893 21.2409 8.34767 20.4411C8.34767 20.2495 8.29769 20.0912 8.26436 19.9329ZM8.6226 12.4848C8.55595 16.5921 11.9301 19.8663 15.9207 19.9246C20.1946 19.9912 23.4604 16.5671 23.4937 12.5598C23.5354 8.36925 20.1946 5.02845 16.0623 5.01179C11.9801 4.9868 8.53096 8.35259 8.6226 12.4848Z" fill="url(#paint0_linear_1694_2958)"/>
<path d="M8.26446 19.9336C8.30611 20.0919 8.34777 20.2502 8.3811 20.4085C8.53106 21.2083 9.09758 21.6831 9.89737 21.6831C10.2306 21.6831 10.5639 21.6831 10.8971 21.6748C11.372 21.6748 11.7635 21.8581 12.0468 22.2413C12.1468 22.3746 12.2634 22.4996 12.3467 22.6329C12.6383 23.0828 12.9882 23.4493 13.5048 23.616C12.6716 25.1489 11.8469 26.6902 11.0137 28.2231C10.6555 28.8896 10.2889 29.5561 9.93069 30.2226C9.86404 30.3475 9.78906 30.4725 9.67243 30.6725C9.53913 30.006 9.42249 29.4228 9.30585 28.8396C9.12257 27.9232 8.93928 27.0068 8.77266 26.0903C8.72267 25.8321 8.66435 25.7737 8.40609 25.882C7.03978 26.4486 5.67347 26.9901 4.30716 27.5399C4.25717 27.5566 4.19885 27.6149 4.09888 27.5483C5.49018 25.0156 6.87315 22.4746 8.26446 19.9336Z" fill="#EF190B"/>
<path d="M18.4868 23.632C19.07 23.5237 19.4282 23.1072 19.7198 22.6489C20.203 21.8908 20.8445 21.5659 21.7526 21.7325C22.0859 21.7908 22.4358 21.7658 22.769 21.6409C23.2689 21.4409 23.5688 21.066 23.6855 20.5412C23.7188 20.3912 23.7271 20.2329 23.8188 20.0996C24.252 20.8827 24.6935 21.6575 25.1184 22.4407C26.0265 24.0986 26.9263 25.7648 27.8261 27.431C27.851 27.4727 27.8677 27.5227 27.9094 27.631C27.3595 27.4144 26.8596 27.2144 26.3681 27.0145C25.435 26.6396 24.4936 26.2647 23.5688 25.8814C23.3522 25.7898 23.2772 25.8065 23.2272 26.0647C22.9523 27.5227 22.6607 28.9806 22.3775 30.4386C22.3691 30.4969 22.3858 30.5636 22.2775 30.6135C22.0859 30.2636 21.8859 29.9137 21.6943 29.5638C20.6446 27.631 19.5949 25.6898 18.5451 23.757C18.5201 23.707 18.5035 23.6653 18.4868 23.632Z" fill="#EF190B"/>
<path d="M8.62288 12.4854C8.53124 8.3531 11.972 4.98731 16.0709 5.00397C20.2032 5.02063 23.5357 8.36143 23.5023 12.552C23.4607 16.5593 20.2032 19.9834 15.9293 19.9168C11.9387 19.8668 8.56457 16.5843 8.62288 12.4854ZM17.1873 12.477C17.1873 11.1524 17.179 9.83604 17.1873 8.51139C17.1873 8.14482 17.0374 7.86989 16.7291 7.6866C16.4125 7.50332 16.0876 7.53664 15.7877 7.74492C15.3295 8.05317 14.8796 8.36143 14.4214 8.67801C14.2048 8.82797 13.9882 8.9696 13.7882 9.12789C13.455 9.38616 13.3467 9.76106 13.4883 10.1526C13.6216 10.5192 13.8965 10.6858 14.3381 10.7025C14.663 10.7108 14.8713 10.5109 15.1212 10.3609C15.2045 10.3109 15.2878 10.186 15.3878 10.2359C15.4878 10.2943 15.4294 10.4276 15.4294 10.5275C15.4294 12.4937 15.4294 14.4598 15.4294 16.426C15.4294 16.9592 15.8043 17.3674 16.2959 17.3757C16.7958 17.3841 17.179 16.9675 17.179 16.4177C17.1873 15.1013 17.1873 13.785 17.1873 12.477Z" fill="#FEDB64"/>
<path d="M17.1871 12.4763C17.1871 13.7843 17.1871 15.1006 17.1871 16.4086C17.1871 16.9584 16.8038 17.375 16.304 17.3667C15.8124 17.3583 15.4375 16.9501 15.4375 16.4169C15.4375 14.4508 15.4375 12.4846 15.4375 10.5185C15.4375 10.4185 15.4958 10.2852 15.3959 10.2269C15.2959 10.1685 15.2126 10.3018 15.1293 10.3518C14.8793 10.5018 14.671 10.7017 14.3461 10.6934C13.9129 10.6851 13.6296 10.5101 13.4964 10.1436C13.3547 9.74366 13.4547 9.37708 13.7963 9.11882C14.0046 8.96053 14.2212 8.8189 14.4294 8.66894C14.8793 8.36068 15.3375 8.0441 15.7958 7.73585C16.0957 7.5359 16.4123 7.49424 16.7372 7.67753C17.0454 7.86081 17.1954 8.13574 17.1954 8.50231C17.1871 9.8353 17.1871 11.1516 17.1871 12.4763Z" fill="#FEDB64"/>
<path d="M17.2713 7.84744V16.3301H15.4779V9.54976H15.4282L13.4856 10.7675V9.17699L15.5856 7.84744H17.2713Z" fill="#93791E"/>
</g>
<defs>
<linearGradient id="paint0_linear_1694_2958" x1="19.1552" y1="1.7312" x2="13.1811" y2="23.3005" gradientUnits="userSpaceOnUse">
<stop stop-color="#E8A95A"/>
<stop offset="0.4981" stop-color="#FFFAA6"/>
<stop offset="1" stop-color="#E8A95A"/>
</linearGradient>
<clipPath id="clip0_1694_2958">
<rect width="32" height="32" fill="white"/>
</clipPath>
</defs>
</svg>
