<svg width="96" height="124" viewBox="0 0 96 124" fill="none" xmlns="http://www.w3.org/2000/svg">
<circle cx="48.0098" cy="43.0098" r="43.0098" fill="#3A327D"/>
<g filter="url(#filter0_d_1242_2121)">
<path fill-rule="evenodd" clip-rule="evenodd" d="M69.0014 74.3957C78.3193 67.8051 84.4028 56.9447 84.4028 44.6634C84.4028 24.5641 68.1091 8.27051 48.0099 8.27051C27.9107 8.27051 11.617 24.5641 11.617 44.6634C11.617 58.2332 19.0439 70.0684 30.0547 76.3258L48.8372 102.562L69.0014 74.3957Z" fill="url(#paint0_linear_1242_2121)"/>
</g>
<g filter="url(#filter1_i_1242_2121)">
<ellipse cx="48.0098" cy="44.165" rx="31.3867" ry="31.3867" fill="url(#paint1_linear_1242_2121)"/>
</g>
<path d="M38.3873 40.627C38.3409 40.1928 38.1454 39.8547 37.8007 39.6127C37.4593 39.3708 37.0152 39.2498 36.4683 39.2498C36.0838 39.2498 35.754 39.3078 35.4789 39.4238C35.2038 39.5398 34.9934 39.6973 34.8475 39.8961C34.7017 40.095 34.6271 40.322 34.6238 40.5772C34.6238 40.7894 34.6719 40.9733 34.768 41.1291C34.8674 41.2849 35.0017 41.4174 35.1707 41.5268C35.3397 41.6329 35.527 41.7224 35.7325 41.7953C35.938 41.8682 36.1451 41.9295 36.3539 41.9792L37.3085 42.2179C37.6929 42.3074 38.0625 42.4283 38.4171 42.5808C38.7751 42.7333 39.0949 42.9255 39.3767 43.1575C39.6617 43.3895 39.8871 43.6696 40.0528 43.9977C40.2185 44.3258 40.3014 44.7103 40.3014 45.1511C40.3014 45.7477 40.1489 46.273 39.844 46.7271C39.5391 47.1779 39.0983 47.5308 38.5215 47.786C37.9482 48.0379 37.2538 48.1639 36.4384 48.1639C35.6463 48.1639 34.9586 48.0413 34.3752 47.796C33.7952 47.5507 33.3411 47.1928 33.013 46.7221C32.6882 46.2515 32.5125 45.6781 32.486 45.002H34.3007C34.3272 45.3566 34.4366 45.6516 34.6288 45.8869C34.821 46.1222 35.0713 46.2979 35.3795 46.4139C35.6911 46.5299 36.0391 46.5879 36.4235 46.5879C36.8246 46.5879 37.1759 46.5282 37.4775 46.4089C37.7824 46.2863 38.0211 46.1172 38.1934 45.9018C38.3658 45.6831 38.4536 45.4279 38.4569 45.1362C38.4536 44.871 38.3757 44.6523 38.2233 44.4799C38.0708 44.3043 37.857 44.1584 37.5819 44.0424C37.3101 43.9231 36.992 43.8171 36.6274 43.7243L35.469 43.426C34.6304 43.2105 33.9676 42.8841 33.4804 42.4466C32.9965 42.0057 32.7545 41.4208 32.7545 40.6916C32.7545 40.0917 32.9169 39.5663 33.2417 39.1156C33.5698 38.6648 34.0156 38.3152 34.5791 38.0666C35.1425 37.8147 35.7805 37.6887 36.4931 37.6887C37.2157 37.6887 37.8487 37.8147 38.3923 38.0666C38.9392 38.3152 39.3684 38.6615 39.6799 39.1056C39.9915 39.5465 40.1522 40.0536 40.1622 40.627H38.3873ZM41.9457 48.0098V37.8279H45.7639C46.5461 37.8279 47.2024 37.9738 47.7327 38.2654C48.2663 38.5571 48.669 38.9582 48.9408 39.4686C49.2159 39.9757 49.3534 40.5524 49.3534 41.1987C49.3534 41.8516 49.2159 42.4316 48.9408 42.9387C48.6657 43.4458 48.2596 43.8452 47.7227 44.1369C47.1858 44.4252 46.5246 44.5694 45.7391 44.5694H43.2085V43.0531H45.4905C45.9479 43.0531 46.3224 42.9735 46.6141 42.8145C46.9057 42.6554 47.1212 42.4366 47.2604 42.1582C47.4029 41.8798 47.4741 41.56 47.4741 41.1987C47.4741 40.8374 47.4029 40.5192 47.2604 40.2441C47.1212 39.969 46.9041 39.7553 46.6091 39.6028C46.3174 39.447 45.9412 39.3691 45.4805 39.3691H43.7902V48.0098H41.9457ZM52.8 37.8279V48.0098H50.9555V37.8279H52.8ZM63.1645 37.8279V48.0098H61.5239L56.7263 41.0744H56.6418V48.0098H54.7973V37.8279H56.4479L61.2405 44.7683H61.33V37.8279H63.1645Z" fill="white"/>
<defs>
<filter id="filter0_d_1242_2121" x="0.73423" y="7.15433" width="94.5513" height="116.057" filterUnits="userSpaceOnUse" color-interpolation-filters="sRGB">
<feFlood flood-opacity="0" result="BackgroundImageFix"/>
<feColorMatrix in="SourceAlpha" type="matrix" values="0 0 0 0 0 0 0 0 0 0 0 0 0 0 0 0 0 0 127 0" result="hardAlpha"/>
<feOffset dy="9.76659"/>
<feGaussianBlur stdDeviation="5.44139"/>
<feComposite in2="hardAlpha" operator="out"/>
<feColorMatrix type="matrix" values="0 0 0 0 0 0 0 0 0 0 0 0 0 0 0 0 0 0 0.25 0"/>
<feBlend mode="normal" in2="BackgroundImageFix" result="effect1_dropShadow_1242_2121"/>
<feBlend mode="normal" in="SourceGraphic" in2="effect1_dropShadow_1242_2121" result="shape"/>
</filter>
<filter id="filter1_i_1242_2121" x="16.6231" y="12.7783" width="62.7734" height="66.7734" filterUnits="userSpaceOnUse" color-interpolation-filters="sRGB">
<feFlood flood-opacity="0" result="BackgroundImageFix"/>
<feBlend mode="normal" in="SourceGraphic" in2="BackgroundImageFix" result="shape"/>
<feColorMatrix in="SourceAlpha" type="matrix" values="0 0 0 0 0 0 0 0 0 0 0 0 0 0 0 0 0 0 127 0" result="hardAlpha"/>
<feOffset dy="4"/>
<feGaussianBlur stdDeviation="2"/>
<feComposite in2="hardAlpha" operator="arithmetic" k2="-1" k3="1"/>
<feColorMatrix type="matrix" values="0 0 0 0 1 0 0 0 0 1 0 0 0 0 1 0 0 0 0.25 0"/>
<feBlend mode="normal" in2="shape" result="effect1_innerShadow_1242_2121"/>
</filter>
<linearGradient id="paint0_linear_1242_2121" x1="48.0099" y1="8.27051" x2="48.0099" y2="102.561" gradientUnits="userSpaceOnUse">
<stop stop-color="#7E70DE"/>
<stop offset="0.0001" stop-color="#7E70DE"/>
<stop offset="0.794" stop-color="#4F41AB"/>
<stop offset="1" stop-color="#7165C0"/>
</linearGradient>
<linearGradient id="paint1_linear_1242_2121" x1="48.0098" y1="12.7783" x2="48.0098" y2="75.5518" gradientUnits="userSpaceOnUse">
<stop stop-color="#9E93E4"/>
<stop offset="1" stop-color="#7064C5"/>
</linearGradient>
</defs>
</svg>
